<svg width="200" height="42" viewBox="0 0 200 42" fill="none" xmlns="http://www.w3.org/2000/svg">
<g clip-path="url(#clip0_201_918)">
<path d="M160.753 28.1572C162.772 28.1572 164.141 27.1989 165.099 25.8813L163.902 25.231C163.251 26.1893 162.053 26.8909 160.753 26.8909C158.255 26.8909 156.355 24.9572 156.355 22.2535C156.355 19.5155 158.255 17.616 160.753 17.616C162.053 17.616 163.251 18.3005 163.902 19.2759L165.082 18.6086C164.175 17.308 162.772 16.3497 160.753 16.3497C157.467 16.3497 154.883 18.7455 154.883 22.2535C154.883 25.7615 157.467 28.1572 160.753 28.1572ZM167.307 27.9519L168.317 25.4021H173.998L175.007 27.9519H176.633L172.047 16.538H170.285L165.681 27.9519H167.307ZM173.587 24.1529H168.744L171.157 17.9925L173.587 24.1529ZM182.896 28.1572C184.916 28.1572 186.285 27.1989 187.243 25.8813L186.045 25.231C185.395 26.1893 184.197 26.8909 182.896 26.8909C180.398 26.8909 178.498 24.9572 178.498 22.2535C178.498 19.5155 180.398 17.616 182.896 17.616C184.197 17.616 185.395 18.3005 186.045 19.2759L187.226 18.6086C186.319 17.308 184.916 16.3497 182.896 16.3497C179.611 16.3497 177.027 18.7455 177.027 22.2535C177.027 25.7615 179.611 28.1572 182.896 28.1572ZM192.958 27.9519C196.518 27.9519 198.811 25.5048 198.811 22.2535C198.811 19.0193 196.518 16.538 192.958 16.538H189.057V27.9519H192.958ZM192.958 26.6856H190.477V17.8043H192.958C195.782 17.8043 197.339 19.7893 197.339 22.2535C197.339 24.7005 195.73 26.6856 192.958 26.6856Z" fill="#7F7F7F"/>
<path d="M146.524 11.9091H145.455V32.2299H146.524V11.9091Z" fill="#AFAFAF"/>
<path fill-rule="evenodd" clip-rule="evenodd" d="M55.0005 28.1231C51.1969 28.1231 48.4213 25.4388 48.4213 21.6296C48.4213 17.846 51.1969 15.1617 55.0005 15.1617C57.5448 15.1617 59.0868 16.261 59.9092 17.3859L57.7761 19.3799C57.185 18.5107 56.2855 18.0506 55.1547 18.0506C53.1758 18.0506 51.788 19.4822 51.788 21.6296C51.788 23.7771 53.1758 25.2343 55.1547 25.2343C56.2855 25.2343 57.185 24.723 57.7761 23.8794L59.9092 25.8734C59.0868 26.9983 57.5448 28.1231 55.0005 28.1231ZM65.4414 27.8164H62.1775V10.7645H65.4414V27.8164ZM69.9606 14.1391C68.9069 14.1391 68.0331 13.2699 68.0331 12.1962C68.0331 11.1225 68.9069 10.2788 69.9606 10.2788C71.0399 10.2788 71.9137 11.1225 71.9137 12.1962C71.9137 13.2699 71.0399 14.1391 69.9606 14.1391ZM71.6053 27.8164H68.3415V15.4685H71.6053V27.8164ZM81.5986 28.1231C80.1337 28.1231 78.7973 27.5096 77.7693 26.2313V32.5203H74.5054V15.4685H77.7693V17.028C78.7202 15.8264 80.0823 15.1617 81.5986 15.1617C84.7853 15.1617 87.0983 17.5137 87.0983 21.6296C87.0983 25.7456 84.7853 28.1231 81.5986 28.1231ZM80.5706 25.2343C82.4467 25.2343 83.7316 23.7771 83.7316 21.6296C83.7316 19.5078 82.4467 18.0506 80.5706 18.0506C79.5169 18.0506 78.3347 18.6385 77.7693 19.4566V23.8027C78.309 24.5952 79.5169 25.2343 80.5706 25.2343ZM95.8377 28.1231C94.3728 28.1231 93.0364 27.5096 92.0084 26.2313V32.5203H88.7445V15.4685H92.0084V17.028C92.9593 15.8264 94.3214 15.1617 95.8377 15.1617C99.0244 15.1617 101.337 17.5137 101.337 21.6296C101.337 25.7456 99.0244 28.1231 95.8377 28.1231ZM94.8097 25.2343C96.6858 25.2343 97.9707 23.7771 97.9707 21.6296C97.9707 19.5078 96.6858 18.0506 94.8097 18.0506C93.756 18.0506 92.5738 18.6385 92.0084 19.4566V23.8027C92.5481 24.5952 93.756 25.2343 94.8097 25.2343ZM104.941 14.1391C103.887 14.1391 103.013 13.2699 103.013 12.1962C103.013 11.1225 103.887 10.2788 104.941 10.2788C106.02 10.2788 106.894 11.1225 106.894 12.1962C106.894 13.2699 106.02 14.1391 104.941 14.1391ZM106.586 27.8164H103.322V15.4685H106.586V27.8164ZM121.018 27.8164H117.729V20.3514C117.729 18.6385 116.829 18.0506 115.441 18.0506C114.156 18.0506 113.18 18.7664 112.614 19.4822V27.8164H109.35V15.4685H112.614V17.0535C113.411 16.1332 114.953 15.1617 116.958 15.1617C119.707 15.1617 121.018 16.6956 121.018 19.0987V27.8164ZM128.643 32.8271C126.536 32.8271 124.865 32.3414 123.297 30.9864L124.762 28.66C125.765 29.7337 127.101 30.1683 128.643 30.1683C130.211 30.1683 132.087 29.5037 132.087 26.9983V25.7967C131.11 27.0239 129.774 27.7141 128.232 27.7141C125.148 27.7141 122.758 25.5666 122.758 21.4507C122.758 17.4114 125.096 15.1617 128.232 15.1617C129.722 15.1617 131.084 15.7753 132.087 17.0535V15.4685H135.351V26.9983C135.351 31.6767 131.701 32.8271 128.643 32.8271ZM129.285 24.8508C130.339 24.8508 131.521 24.2373 132.087 23.4448V19.4311C131.521 18.6385 130.339 18.0506 129.285 18.0506C127.409 18.0506 126.124 19.3288 126.124 21.4507C126.124 23.5726 127.409 24.8508 129.285 24.8508Z" fill="#545454"/>
<path fill-rule="evenodd" clip-rule="evenodd" d="M11.1264 20.9999H29.4523V19.6544H11.1264V20.9999Z" fill="#FC5836"/>
<path fill-rule="evenodd" clip-rule="evenodd" d="M11.1264 17.6362H29.4523V16.2906H11.1264V17.6362Z" fill="#FC5836"/>
<path fill-rule="evenodd" clip-rule="evenodd" d="M22.9073 7.54474H29.4523V6.19922H22.9073V7.54474Z" fill="#FC5836"/>
<path fill-rule="evenodd" clip-rule="evenodd" d="M22.9073 10.9085H29.4523V9.56299H22.9073V10.9085Z" fill="#FC5836"/>
<path fill-rule="evenodd" clip-rule="evenodd" d="M22.9073 14.2724H29.4523V12.9269H22.9073V14.2724Z" fill="#FC5836"/>
<path fill-rule="evenodd" clip-rule="evenodd" d="M11.1264 24.3638H20.2894V23.0183H11.1264V24.3638Z" fill="#FC5836"/>
<path fill-rule="evenodd" clip-rule="evenodd" d="M20.2894 6.19922V14.2724H11.1264V6.19922H20.2894ZM18.9804 7.54474H12.4354V12.9268H18.9804V7.54474Z" fill="#FC5836"/>
<path fill-rule="evenodd" clip-rule="evenodd" d="M34.0338 21V9.25018C37.1108 12.752 38.6137 17.2221 38.5931 21.6154C38.5739 25.7148 37.798 27.4419 36.6518 30.1174V23.0183L34.0338 21ZM35.3428 32.4011C33.9068 34.5811 31.8313 36.5387 29.4523 37.989L21.5984 33.1097L35.3428 24.3638V32.4011ZM20.2894 33.7825L28.2797 38.5817C25.982 39.8627 23.0888 40.5101 20.2894 40.5101C17.49 40.5101 14.4847 39.8342 12.3201 38.5817L20.2894 33.7825ZM5.23596 24.3638L18.9804 33.1097L10.9305 37.8374C8.50652 36.3921 6.78832 34.6624 5.23596 32.2904V24.3638ZM6.54351 21L3.92696 22.9195V22.934V30.1441C2.74443 27.6132 1.98566 24.8508 1.98566 21.5801C1.98566 16.2907 3.91313 12.4506 6.54351 9.19491V21ZM7.87248 3.44466C7.87248 2.38702 8.70329 1.5271 9.72471 1.5271C10.7458 1.5271 11.5766 2.38702 11.5766 3.44466V4.15681L32.7248 4.18098V24.3638L20.2894 31.7642L7.85327 24.3638L7.87248 3.44466ZM34.3754 4.19374H36.923V3.48242C36.923 1.64156 35.4706 0.144409 33.6855 0.144409H9.48252C7.69708 0.144409 6.24501 1.64156 6.24501 3.48242V7.48013C2.7884 11.131 0.65448 16.119 0.65448 21.6114C0.65448 32.7743 9.46269 41.8556 20.2896 41.8556C31.1161 41.8556 39.9243 32.7743 39.9243 21.6114C39.9243 16.1404 37.8075 11.1705 34.3754 7.52378V4.19374Z" fill="#FC5836"/>
</g>
<defs>
<clipPath id="clip0_201_918">
<rect width="200" height="41.7112" fill="white" transform="translate(0 0.144409)"/>
</clipPath>
</defs>
</svg>
