<svg width="20" height="21" viewBox="0 0 20 21" fill="none" xmlns="http://www.w3.org/2000/svg">
<g clip-path="url(#clip0_157_364)">
<path d="M13.317 2.90837C13.3404 2.8324 13.3486 2.75258 13.3411 2.67345C13.3336 2.59433 13.3106 2.51745 13.2734 2.44721C13.2362 2.37698 13.1855 2.31475 13.1243 2.2641C13.0631 2.21344 12.9924 2.17534 12.9165 2.15198C12.8405 2.12862 12.7607 2.12045 12.6815 2.12794C12.6024 2.13542 12.5255 2.15842 12.4553 2.19562C12.3851 2.23282 12.3228 2.28349 12.2722 2.34473C12.2215 2.40598 12.1834 2.4766 12.1601 2.55257L7.31918 18.2855C7.272 18.4389 7.2877 18.6048 7.36282 18.7467C7.43794 18.8885 7.56634 18.9947 7.71977 19.0419C7.87319 19.0891 8.03907 19.0734 8.18092 18.9982C8.32277 18.9231 8.42897 18.7947 8.47616 18.6413L13.317 2.90837ZM6.51075 5.93273C6.5671 5.98893 6.61181 6.05571 6.64232 6.12923C6.67282 6.20274 6.68853 6.28155 6.68853 6.36115C6.68853 6.44074 6.67282 6.51955 6.64232 6.59306C6.61181 6.66658 6.5671 6.73336 6.51075 6.78956L2.70218 10.5969L6.51075 14.4043C6.62438 14.5179 6.68821 14.672 6.68821 14.8327C6.68821 14.9934 6.62438 15.1475 6.51075 15.2611C6.39713 15.3748 6.24302 15.4386 6.08233 15.4386C5.92164 15.4386 5.76754 15.3748 5.65391 15.2611L1.41813 11.0254C1.36178 10.9691 1.31707 10.9024 1.28656 10.8289C1.25606 10.7553 1.24036 10.6765 1.24036 10.5969C1.24036 10.5173 1.25606 10.4385 1.28656 10.365C1.31707 10.2915 1.36178 10.2247 1.41813 10.1685L5.65391 5.93273C5.71012 5.87637 5.7769 5.83166 5.85041 5.80116C5.92393 5.77065 6.00274 5.75495 6.08233 5.75495C6.16193 5.75495 6.24074 5.77065 6.31425 5.80116C6.38777 5.83166 6.45454 5.87637 6.51075 5.93273ZM14.1255 5.93273C14.0691 5.98893 14.0244 6.05571 13.9939 6.12923C13.9634 6.20274 13.9477 6.28155 13.9477 6.36115C13.9477 6.44074 13.9634 6.51955 13.9939 6.59306C14.0244 6.66658 14.0691 6.73336 14.1255 6.78956L17.9341 10.5969L14.1255 14.4043C14.0692 14.4606 14.0246 14.5274 13.9941 14.6009C13.9637 14.6744 13.948 14.7532 13.948 14.8327C13.948 14.9123 13.9637 14.9911 13.9941 15.0646C14.0246 15.1381 14.0692 15.2049 14.1255 15.2611C14.1817 15.3174 14.2485 15.362 14.322 15.3925C14.3955 15.4229 14.4743 15.4386 14.5539 15.4386C14.6335 15.4386 14.7122 15.4229 14.7858 15.3925C14.8593 15.362 14.9261 15.3174 14.9823 15.2611L19.2181 11.0254C19.2745 10.9691 19.3192 10.9024 19.3497 10.8289C19.3802 10.7553 19.3959 10.6765 19.3959 10.5969C19.3959 10.5173 19.3802 10.4385 19.3497 10.365C19.3192 10.2915 19.2745 10.2247 19.2181 10.1685L14.9823 5.93273C14.9261 5.87637 14.8593 5.83166 14.7858 5.80116C14.7123 5.77065 14.6335 5.75495 14.5539 5.75495C14.4743 5.75495 14.3955 5.77065 14.322 5.80116C14.2485 5.83166 14.1817 5.87637 14.1255 5.93273Z" fill="#6EF2A3"/>
</g>
<defs>
<clipPath id="clip0_157_364">
<rect width="19.3636" height="19.3636" fill="white" transform="translate(0.636353 0.915039)"/>
</clipPath>
</defs>
</svg>
