<svg width="20" height="20" viewBox="0 0 20 20" fill="none" xmlns="http://www.w3.org/2000/svg">
<g clip-path="url(#clip0_157_357)">
<path d="M3.5863 3.62282C3.5863 1.62199 5.2083 0 7.20916 0H13.4255C15.4263 0 17.0483 1.62199 17.0483 3.62282C17.0483 4.88976 16.398 6.00484 15.4129 6.65234C16.398 7.29989 17.0483 8.41492 17.0483 9.68188C17.0483 11.6827 15.4263 13.3047 13.4255 13.3047H13.3468C12.4088 13.3047 11.5541 12.9482 10.9107 12.3634V15.7014C10.9107 17.7289 9.24627 19.3636 7.22867 19.3636C5.23282 19.3636 3.5863 17.7466 3.5863 15.7408C3.5863 14.4739 4.23659 13.3589 5.22159 12.7113C4.23659 12.0638 3.5863 10.9488 3.5863 9.68188C3.5863 8.41492 4.23665 7.29989 5.22172 6.65234C4.23665 6.00484 3.5863 4.88976 3.5863 3.62282ZM9.72397 7.24573H7.20916C5.86369 7.24573 4.773 8.33645 4.773 9.68188C4.773 11.0221 5.85528 12.1096 7.19357 12.118C7.19876 12.1179 7.20394 12.1179 7.20916 12.1179H9.72397V7.24573ZM10.9107 9.68188C10.9107 11.0273 12.0014 12.118 13.3468 12.118H13.4255C14.771 12.118 15.8616 11.0273 15.8616 9.68188C15.8616 8.33645 14.771 7.24573 13.4255 7.24573H13.3468C12.0014 7.24573 10.9107 8.33645 10.9107 9.68188ZM7.20916 13.3047C7.20394 13.3047 7.19876 13.3047 7.19357 13.3047C5.85528 13.313 4.773 14.4005 4.773 15.7408C4.773 17.0813 5.87827 18.1769 7.22867 18.1769C8.60084 18.1769 9.72397 17.0636 9.72397 15.7014V13.3047H7.20916ZM7.20916 1.18669C5.86369 1.18669 4.773 2.27739 4.773 3.62282C4.773 4.96828 5.86369 6.05896 7.20916 6.05896H9.72397V1.18669H7.20916ZM10.9107 6.05896H13.4255C14.771 6.05896 15.8616 4.96828 15.8616 3.62282C15.8616 2.27739 14.771 1.18669 13.4255 1.18669H10.9107V6.05896Z" fill="#6EF2A3"/>
</g>
<defs>
<clipPath id="clip0_157_357">
<rect width="19.3636" height="19.3636" fill="white" transform="translate(0.636353)"/>
</clipPath>
</defs>
</svg>
