<svg width="20" height="21" viewBox="0 0 20 21" fill="none" xmlns="http://www.w3.org/2000/svg">
<path d="M10.3182 12.847C11.6549 12.847 12.7386 11.7633 12.7386 10.4266C12.7386 9.08978 11.6549 8.0061 10.3182 8.0061C8.98138 8.0061 7.89771 9.08978 7.89771 10.4266C7.89771 11.7633 8.98138 12.847 10.3182 12.847Z" fill="#6EF2A3"/>
<path d="M11.125 4.0277V2.3584H9.51134V4.0277C8.09148 4.20871 6.77193 4.85609 5.75981 5.86821C4.74769 6.88032 4.10031 8.19988 3.9193 9.61974H2.25V11.2334H3.9193C4.10018 12.6533 4.74751 13.9729 5.75966 14.9851C6.7718 15.9972 8.09143 16.6445 9.51134 16.8254V18.4947H11.125V16.8254C12.5449 16.6445 13.8645 15.9972 14.8767 14.9851C15.8888 13.9729 16.5361 12.6533 16.717 11.2334H18.3863V9.61974H16.717C16.536 8.19988 15.8886 6.88032 14.8765 5.86821C13.8644 4.85609 12.5448 4.20871 11.125 4.0277ZM10.3182 15.2675C7.64841 15.2675 5.47726 13.0963 5.47726 10.4266C5.47726 7.7568 7.64841 5.58566 10.3182 5.58566C12.9879 5.58566 15.1591 7.7568 15.1591 10.4266C15.1591 13.0963 12.9879 15.2675 10.3182 15.2675Z" fill="#6EF2A3"/>
</svg>
