<svg width="150" height="50" viewBox="0 0 150 50" fill="none" xmlns="http://www.w3.org/2000/svg">
<path d="M13.1198 39.6499V35.9076H9.50552V28.8705L20.1858 39.6499H25.729V35.9076H21.9929L14.4599 28.4028L22.4397 21.7725H25.729V18.2743H13.9117V21.7725H17.2822L9.50552 28.3214V9H1.48514V12.7016H5.30243V35.9076H1.48514V39.6499H13.1198ZM38.4195 40.0159C41.384 40.0159 43.9356 38.8499 46.0744 36.5178V39.6499H54.0948V35.9076H50.2369V9H41.9525V12.7016H46.0744V21.1623C44.9103 19.9691 43.7089 19.0946 42.4703 18.5387C41.2317 17.9828 39.9221 17.7048 38.5413 17.7048C36.6327 17.7048 34.8594 18.2167 33.2215 19.2403C31.5836 20.264 30.301 21.6437 29.3737 23.3792C28.4465 25.1147 27.9829 27.013 27.9829 29.0739C27.9829 31.0942 28.4194 32.9382 29.2925 34.606C30.1656 36.2737 31.3907 37.5923 32.9677 38.5618C34.5447 39.5312 36.362 40.0159 38.4195 40.0159ZM39.2114 36.2737C37.939 36.2737 36.7884 35.9551 35.7596 35.3178C34.7308 34.6805 33.9186 33.806 33.323 32.6942C32.7274 31.5823 32.4296 30.3349 32.4296 28.9519C32.4296 27.6638 32.7206 26.4537 33.3027 25.3215C33.8848 24.1893 34.68 23.2809 35.6885 22.5962C36.697 21.9114 37.8442 21.5691 39.1302 21.5691C40.4567 21.5691 41.648 21.8877 42.7038 22.525C43.7597 23.1623 44.5854 24.03 45.181 25.1283C45.7766 26.2266 46.0744 27.4401 46.0744 28.7689C46.0744 30.0841 45.7766 31.3179 45.181 32.4704C44.5854 33.6229 43.7664 34.5449 42.7241 35.2364C41.6818 35.9279 40.5109 36.2737 39.2114 36.2737ZM67.9832 40.2803C70.2032 40.2803 72.2574 39.816 74.1457 38.8872C76.0341 37.9584 77.5603 36.5856 78.7245 34.7687L75.029 33.1009C74.2168 34.3077 73.2083 35.2025 72.0036 35.7856C70.7988 36.3686 69.4926 36.6601 68.0848 36.6601C66.1626 36.6601 64.5382 36.0669 63.2116 34.8805C61.885 33.6941 61.0932 32.0772 60.836 30.0298H78.7245C78.6432 27.5079 78.1221 25.3215 77.161 23.4707C76.1999 21.6199 74.8835 20.1962 73.2117 19.1997C71.54 18.2031 69.5805 17.7048 67.3335 17.7048C65.2759 17.7048 63.3944 18.1895 61.6888 19.159C59.9832 20.1285 58.6397 21.4742 57.6583 23.1962C56.6769 24.9181 56.1862 26.8503 56.1862 28.9926C56.1862 31.1484 56.6836 33.0874 57.6786 34.8093C58.6735 36.5313 60.0644 37.8736 61.8512 38.8363C63.638 39.799 65.682 40.2803 67.9832 40.2803ZM74.3183 27.0198H60.9578C61.2962 25.2707 62.061 23.8639 63.2522 22.7996C64.4434 21.7352 65.8309 21.203 67.4147 21.203C69.0797 21.203 70.5484 21.7352 71.8208 22.7996C73.0933 23.8639 73.9258 25.2707 74.3183 27.0198ZM94.3185 39.6499V35.9076H89.6687V31.0671C89.6687 28.7892 89.8481 27.0469 90.2068 25.8401C90.5655 24.6334 91.2999 23.7317 92.4099 23.1351C93.5199 22.5385 95.2119 22.2403 97.4861 22.2403H98.3998V17.9895H97.4454C95.0901 17.9895 93.2796 18.3658 92.0139 19.1183C90.7483 19.8708 89.689 21.203 88.8362 23.1148V18.2743H81.2219V22.0369H85.5062V35.9076H81.2219V39.6499H94.3185ZM111.76 39.6499V35.9076H108.085V24.5385C110.413 22.6945 112.512 21.7725 114.38 21.7725C115.259 21.7725 115.892 22.064 116.278 22.647C116.664 23.23 116.857 24.1927 116.857 25.5351V39.6499H124.634V35.9076H121.06V25.2707C121.06 22.7758 120.603 20.9386 119.689 19.759C118.776 18.5794 117.364 17.9895 115.456 17.9895C113.155 17.9895 110.698 18.9454 108.085 20.8572V18.2743H100.187V22.0369H103.943V35.9076H100.187V39.6499H111.76ZM138.238 40.2803C140.309 40.2803 142.197 39.7787 143.903 38.7753C145.608 37.772 146.955 36.4093 147.943 34.6873C148.932 32.9653 149.426 31.0671 149.426 28.9926C149.426 26.9587 148.938 25.0808 147.964 23.3589C146.989 21.6369 145.649 20.264 143.943 19.2403C142.238 18.2167 140.336 17.7048 138.238 17.7048C136.072 17.7048 134.136 18.1895 132.431 19.159C130.725 20.1285 129.395 21.4674 128.441 23.1758C127.486 24.8842 127.009 26.8232 127.009 28.9926C127.009 31.0671 127.486 32.9653 128.441 34.6873C129.395 36.4093 130.732 37.772 132.451 38.7753C134.17 39.7787 136.099 40.2803 138.238 40.2803ZM138.238 36.1923C136.992 36.1923 135.842 35.8669 134.786 35.2161C133.73 34.5653 132.904 33.6839 132.309 32.5721C131.713 31.4603 131.415 30.2671 131.415 28.9926C131.415 27.718 131.713 26.5249 132.309 25.413C132.904 24.3012 133.723 23.4165 134.766 22.7589C135.808 22.1013 136.952 21.7725 138.197 21.7725C139.47 21.7725 140.627 22.1081 141.669 22.7792C142.712 23.4504 143.524 24.3351 144.106 25.4334C144.688 26.5316 144.979 27.718 144.979 28.9926C144.979 30.2942 144.688 31.4942 144.106 32.5925C143.524 33.6907 142.712 34.5653 141.669 35.2161C140.627 35.8669 139.483 36.1923 138.238 36.1923Z" fill="white"/>
</svg>
