<svg width="150" height="50" viewBox="0 0 150 50" fill="none" xmlns="http://www.w3.org/2000/svg">
<path d="M50.3553 32.1131V22.6331L45.6987 27.3608L50.3553 32.1131Z" fill="white"/>
<path d="M104.51 32.1131V22.6331L109.166 27.3608L104.51 32.1131Z" fill="white"/>
<path d="M149.974 35.6203L144.419 28.8719L141.402 25.207L131.892 13.6535L131.865 13.6204H125.77H125.771H125.77V35.6203H131.01V20.0098L139.684 30.5865L143.812 35.6196V35.6203H149.974Z" fill="white"/>
<path d="M37.5082 32.1728V28.7501H44.0673L42.6989 27.3519L44.2691 25.7574H37.5082V22.5713H47.4041L50.352 19.5786H33.7949V35.1655H50.3551L47.4227 32.1728H37.5082Z" fill="white"/>
<path d="M72.018 35.1655H67.6731L57.3148 24.0334H57.2514V35.1655H53.5405V19.5786H57.8815L68.2251 30.7265H68.3024V19.5786H72.0134L72.018 35.1655Z" fill="white"/>
<path d="M123.178 17.7571H78.2988V35.1675H74.5879V17.7571H33.7958V13.6204H123.178V17.7571Z" fill="white"/>
<path d="M101.687 27.348C101.687 29.6735 100.807 31.5752 99.0494 33.0533C97.024 34.7612 94.4363 35.6152 91.2863 35.6152C88.136 35.6152 85.5553 34.7612 83.5442 33.0533C81.8 31.5757 80.9282 29.674 80.9287 27.348C80.9287 25.0519 81.8075 23.1646 83.565 21.686C85.6045 19.966 88.1847 19.106 91.3051 19.106C94.4264 19.106 97.0069 19.967 99.0476 21.6892C100.806 23.1678 101.687 25.054 101.687 27.348ZM97.8674 27.348C97.8674 25.792 97.2701 24.5275 96.0746 23.5544C94.88 22.5813 93.2901 22.0961 91.3051 22.0987C89.3222 22.0987 87.7331 22.585 86.5384 23.5576C85.3437 24.5301 84.7463 25.7936 84.7463 27.348C84.7463 28.9339 85.337 30.2094 86.5183 31.1747C87.6996 32.1399 89.2889 32.6225 91.2863 32.6225C93.2964 32.6225 94.8961 32.1399 96.0854 31.1747C97.2755 30.2094 97.8692 28.9339 97.8674 27.348Z" fill="white"/>
<path d="M119.297 29.3742C121.616 28.7287 122.775 27.1645 122.775 24.6811C122.775 23.1599 122.248 21.9291 121.193 20.9886C120.138 20.0481 118.746 19.5781 117.018 19.5786H104.51L108.22 23.3477V22.5713H116.596C117.369 22.5713 117.981 22.7554 118.431 23.1236C118.648 23.2941 118.822 23.5147 118.939 23.7675C119.057 24.0201 119.113 24.2976 119.105 24.577C119.105 25.223 118.888 25.7326 118.452 26.1061C118.017 26.4796 117.405 26.6663 116.617 26.6663H111.484L112.163 27.3559L109.908 29.6574H115.242L118.983 35.1655H123.174L119.297 29.3742ZM108.221 35.1655V31.3783L104.51 35.1655H108.221Z" fill="white"/>
<path d="M31.2031 35.6196H25.9629V20.0011H25.8732L15.6015 32.6118L5.32989 20.0011H5.2402V35.6235H0V13.6204H6.09373L15.5822 25.2678L25.0699 13.6204H31.2031V35.6196Z" fill="white"/>
</svg>
