<svg width="180" height="28" viewBox="0 0 180 28" fill="none" xmlns="http://www.w3.org/2000/svg">
<path d="M60.067 22.778V11.7L54.5127 17.2253L60.067 22.7796V22.778ZM124.664 22.778V11.7L130.219 17.2253L124.664 22.7796V22.778Z" fill="#00B09B"/>
<path d="M178.897 26.8762L172.271 18.9883L168.671 14.7053L157.328 1.20044L157.296 1.16187H150.027V26.8762H156.277V8.63026L166.624 20.9924L171.546 26.8745V26.8762H178.897V26.8762ZM44.7428 22.8487V18.8485H52.5664L50.9336 17.214L52.8075 15.3497H44.7428V11.6292H56.5473L60.0637 8.13044H40.312V26.349H60.0669L56.5682 22.8503H44.7428V22.8487ZM85.9082 26.3474H80.7252L68.3678 13.336H68.2923V26.3474H63.8646V8.12883H69.0428L81.3825 21.1595H81.4741V8.12883H85.9002L85.9066 26.3474H85.9082Z" fill="white"/>
<path d="M146.933 5.99776H93.3991V26.3474H88.9731V5.99776H40.3136V1.16187H146.933V5.99776V5.99776Z" fill="white"/>
<path d="M121.297 17.2092C121.297 19.9269 120.248 22.1495 118.151 23.8788C115.735 25.8733 112.649 26.8729 108.89 26.8729C105.133 26.8729 102.055 25.8733 99.6557 23.8772C97.5761 22.1512 96.5346 19.9285 96.5362 17.2076C96.5362 14.5253 97.5841 12.3203 99.6814 10.591C102.113 8.58204 105.191 7.57597 108.914 7.57597C112.637 7.57597 115.716 8.58204 118.149 10.5942C120.248 12.3235 121.297 14.5285 121.297 17.2092V17.2092ZM116.741 17.2092C116.741 15.3899 116.029 13.9129 114.604 12.7751C113.178 11.6372 111.282 11.0715 108.914 11.0731C106.549 11.0731 104.652 11.642 103.228 12.7783C101.803 13.9162 101.091 15.3931 101.091 17.2092C101.091 19.0622 101.795 20.5537 103.204 21.6819C104.614 22.8101 106.509 23.3742 108.89 23.3742C111.288 23.3742 113.197 22.8101 114.617 21.6819C116.036 20.5537 116.744 19.0622 116.741 17.2092ZM142.303 19.5781C145.07 18.8228 146.454 16.9954 146.454 14.0929C146.454 12.3154 145.824 10.8754 144.566 9.77615C143.307 8.67687 141.647 8.12883 139.585 8.12883H124.666L129.092 12.534V11.6276H139.084C140.006 11.6276 140.736 11.8413 141.273 12.272C141.531 12.4715 141.739 12.7294 141.879 13.0247C142.019 13.32 142.086 13.6443 142.076 13.9708C142.076 14.7262 141.819 15.3208 141.298 15.7579C140.779 16.1951 140.048 16.4137 139.108 16.4137H132.985L133.796 17.2188L131.106 19.9092H137.47L141.932 26.3474H146.93L142.304 19.5781H142.303ZM129.092 26.3474V21.9213L124.664 26.3474H129.092V26.3474ZM37.2214 26.8762H30.9696V8.61901H30.8636L18.6107 23.3597L6.35786 8.62061H6.25018V26.881H0V1.16187H7.26911L18.5882 14.776L29.9057 1.16347H37.2214V26.8762V26.8762Z" fill="white"/>
</svg>
