<svg width="60" height="60" viewBox="0 0 60 60" fill="none" xmlns="http://www.w3.org/2000/svg">
<path d="M30 35.365C32.9644 35.365 35.3675 32.9619 35.3675 29.9975C35.3675 27.0331 32.9644 24.63 30 24.63C27.0356 24.63 24.6325 27.0331 24.6325 29.9975C24.6325 32.9619 27.0356 35.365 30 35.365Z" fill="#6ED2F2"/>
<path d="M11.285 39.5025C11.8125 39.6775 12.34 39.855 12.88 40.0075C12.705 40.71 12.5525 41.4025 12.41 42.1175C11.18 48.6225 12.14 53.7775 15.21 55.5475C18.375 57.375 23.695 55.5 28.875 50.965C29.285 50.6025 29.695 50.2275 30.105 49.8275C30.62 50.3325 31.16 50.8125 31.6975 51.28C36.7125 55.5925 41.67 57.3375 44.73 55.57C47.895 53.7425 48.925 48.2 47.59 41.45C47.485 40.935 47.3675 40.4075 47.2375 39.8675C47.6125 39.7625 47.975 39.645 48.34 39.5275C55.1025 37.29 60 33.6675 60 29.9525C60 26.4025 55.3825 22.9575 49.0075 20.765V20.7625C48.375 20.5525 47.7425 20.3525 47.11 20.165C47.215 19.7325 47.31 19.2975 47.4025 18.865C48.845 11.88 47.895 6.26998 44.695 4.41748C41.6125 2.64748 36.585 4.48748 31.5 8.91748C30.995 9.34998 30.505 9.80748 30.035 10.265C29.7175 9.95998 29.39 9.65498 29.0625 9.36248C23.73 4.62748 18.3875 2.63498 15.1875 4.49998C12.1175 6.28248 11.2025 11.5675 12.4925 18.1725C12.6225 18.83 12.7625 19.4725 12.925 20.13C12.175 20.34 11.4375 20.575 10.745 20.8225C4.4875 22.99 0 26.4125 0 29.9525C0 33.61 4.78 37.275 11.285 39.5025ZM27.2225 49.05C25.29 50.82 23.05 52.225 20.6125 53.1875C19.3125 53.8075 17.8125 53.8675 16.475 53.34C14.6125 52.2625 13.8375 48.125 14.8925 42.5575C15.0225 41.9025 15.1625 41.245 15.325 40.6C17.95 41.1625 20.5975 41.55 23.2825 41.7475C24.83 43.94 26.5275 46.0375 28.345 48.005C27.97 48.3675 27.595 48.72 27.22 49.0475L27.2225 49.05ZM42.105 27.045C41.555 26.0125 40.9925 24.9825 40.405 23.975C39.83 22.98 39.2325 21.995 38.6125 21.0225C40.5 21.2575 42.305 21.5725 43.9925 21.96C43.4525 23.695 42.82 25.3825 42.105 27.045ZM42.1275 32.88C42.8775 34.58 43.535 36.3025 44.1075 38.0725C42.29 38.4825 40.4525 38.8 38.6 39.01C39.2325 38.025 39.83 37.0175 40.4175 36.01C41.015 34.9775 41.5775 33.935 42.1275 32.88ZM40.7725 29.965C39.9875 31.5825 39.1425 33.175 38.2425 34.745C37.3525 36.3025 36.4025 37.815 35.4075 39.315C33.6625 39.445 31.845 39.5025 30.005 39.5025C28.165 39.5025 26.385 39.445 24.6625 39.3375C23.6425 37.85 22.6825 36.325 21.78 34.7675C20.8775 33.21 20.045 31.6275 19.26 30.01H19.255C20.0275 28.3925 20.8725 26.81 21.7625 25.2525C22.6525 23.695 23.615 22.1825 24.6225 20.695C26.38 20.565 28.1725 20.495 30.0025 20.495C31.8325 20.495 33.635 20.565 35.3825 20.695C36.3775 22.1725 37.3275 23.6825 38.23 25.23C39.1325 26.7775 39.975 28.36 40.7725 29.965ZM19.58 23.9975C19.005 24.9925 18.4425 26.01 17.915 27.0425C17.1775 25.2975 16.555 23.5875 16.04 21.935C17.7275 21.56 19.52 21.255 21.3825 21.02C20.765 21.9925 20.155 22.9875 19.58 23.9975ZM17.9175 32.9725C18.4575 34.005 19.0075 35.025 19.5925 36.0325C20.19 37.0525 20.8 38.0725 21.445 39.0675C19.6175 38.8675 17.8 38.575 16.0075 38.1875C16.5225 36.5 17.1675 34.755 17.9175 32.9725ZM30.095 46.2C28.9 44.9125 27.705 43.485 26.545 41.9475C27.67 41.995 28.83 42.0175 30.0025 42.0175C31.21 42.0175 32.3925 41.995 33.565 41.935C32.4875 43.4225 31.3275 44.8425 30.095 46.2ZM45.4125 49.72C45.305 51.1475 44.6025 52.4825 43.4775 53.385C41.615 54.4625 37.6425 53.0575 33.3525 49.3775C32.86 48.955 32.3675 48.4975 31.865 48.03C33.6575 46.05 35.31 43.9525 36.81 41.75C39.4925 41.5275 42.165 41.1175 44.8025 40.52C44.92 41 45.025 41.48 45.12 41.95C45.695 44.4825 45.7875 47.1175 45.4125 49.72ZM46.43 22.58C47.04 22.755 47.625 22.9425 48.1875 23.13C53.6475 25.005 57.48 27.795 57.48 29.9275C57.48 32.225 53.39 35.19 47.5425 37.1225C47.215 37.2275 46.8875 37.3325 46.5475 37.4275C45.7275 34.8725 44.72 32.3775 43.56 29.95C44.685 27.56 45.635 25.0975 46.43 22.58ZM33.15 10.815C37.5125 7.01998 41.5775 5.53248 43.43 6.59748C45.41 7.73498 46.1725 12.3275 44.93 18.3625C44.8475 18.76 44.765 19.1475 44.66 19.535C42.0575 18.95 39.4225 18.5275 36.7725 18.2925C35.25 16.11 33.585 14.025 31.78 12.0675C32.2375 11.635 32.6825 11.225 33.15 10.815ZM30.025 13.8625C31.255 15.1975 32.415 16.6025 33.4925 18.055C31.1725 17.95 28.84 17.95 26.52 18.055C27.6675 16.545 28.8525 15.14 30.025 13.8625ZM16.43 6.67998C18.4 5.53248 22.77 7.17248 27.375 11.25C27.6675 11.5075 27.96 11.79 28.265 12.07C26.4475 14.025 24.7725 16.11 23.2375 18.29C20.59 18.525 17.965 18.935 15.3625 19.51C15.21 18.9125 15.0825 18.3025 14.9525 17.6925C13.85 12.02 14.5775 7.74498 16.43 6.67998ZM11.5675 23.2C12.235 22.965 12.915 22.755 13.595 22.555C14.3925 25.0975 15.3525 27.595 16.465 30.0075C15.34 32.4575 14.3675 34.9875 13.56 37.565L13.5575 37.5675C13.065 37.4275 12.585 37.275 12.105 37.11C9.61 36.325 6.7725 35.0825 4.7225 33.455C3.54 32.635 2.7425 31.37 2.52 29.95C2.52 27.805 6.2225 25.0625 11.5675 23.2Z" fill="#6ED2F2"/>
</svg>
