<svg width="35" height="35" viewBox="0 0 35 35" fill="none" xmlns="http://www.w3.org/2000/svg">
<path d="M34.2708 35H0.729167C0.326667 35 0 34.6733 0 34.2708V0.729167C0 0.326667 0.326667 0 0.729167 0H34.2708C34.6733 0 35 0.326667 35 0.729167V34.2708C35 34.6733 34.6733 35 34.2708 35ZM1.45833 33.5417H33.5417V1.45833H1.45833V33.5417ZM26.4906 32.2496C25.9175 32.2496 25.3181 32.2146 24.9331 32.1446C23.431 31.8748 22.0004 31.1252 21.1079 30.1365C19.7488 28.6358 20.0433 28.1546 20.1542 27.9737C20.2665 27.8031 20.3919 27.7142 20.72 27.526C20.7215 27.5246 20.7229 27.5246 20.7244 27.5231C20.8746 27.4385 21.4346 27.1148 21.964 26.8071L22.9294 26.2485C23.2604 26.0546 23.6833 26.1537 23.8977 26.4702L24.1004 26.7692C24.3367 27.1279 24.866 27.6223 25.1081 27.7506C25.9612 28.2013 27.0973 28.089 27.545 27.6894C27.6777 27.5771 27.7419 27.44 27.7419 27.2883C27.7404 26.9646 27.7258 26.9456 27.6179 26.7881C27.4604 26.5621 26.9004 26.2558 25.6229 25.7002C23.8117 24.92 22.9848 24.4052 22.2221 23.5842C21.7233 23.0198 21.3544 22.3563 21.1444 21.6504C20.9723 21.0131 20.9373 19.7167 21.0627 19.1231C21.4783 17.1733 22.979 15.7719 25.079 15.3737C25.7717 15.2425 27.2402 15.2833 27.9344 15.4569C28.91 15.7019 29.6873 16.151 30.3815 16.8685C30.396 16.886 31.2521 17.8106 31.3673 18.2744C31.5058 18.7935 31.5321 18.8898 28.7146 20.6398C28.296 20.9198 27.8542 20.7419 27.421 20.0973C27.0812 19.6044 26.81 19.4994 26.3988 19.4702C26.0735 19.4454 25.8125 19.5096 25.6681 19.6467C25.5646 19.7444 25.5121 19.8931 25.5135 20.09C25.5121 20.2125 25.5267 20.2898 25.5573 20.3554C25.566 20.3729 25.5748 20.3875 25.5835 20.405C25.6929 20.6325 25.9671 20.8425 27.16 21.3573C29.7077 22.454 30.816 23.1992 31.5467 24.3075C32.391 25.5879 32.5806 27.5406 32.009 29.0558C31.3804 30.7081 29.8638 31.815 27.7375 32.1738C27.4385 32.2248 26.9748 32.2496 26.4906 32.2496ZM21.7656 28.6067C21.9115 28.8137 22.0748 29.0325 22.1885 29.1579C22.8725 29.9163 23.994 30.4952 25.1898 30.7081C25.7352 30.8058 27.001 30.8204 27.491 30.7344C29.0908 30.4631 30.2094 29.6844 30.6469 28.5367C31.0508 27.4677 30.9152 25.9933 30.3304 25.1081C29.7792 24.271 28.8327 23.6615 26.5825 22.6931C25.27 22.1244 24.6502 21.77 24.2988 21.0904C24.2958 21.0831 24.2915 21.0773 24.2885 21.07C24.1354 20.7856 24.0552 20.4648 24.0552 20.1425C24.0538 19.4848 24.2667 18.9598 24.6721 18.5792C25.1227 18.1562 25.7556 17.955 26.5023 18.0104C27.3335 18.0688 27.9504 18.3969 28.4754 19.0633C28.9056 18.7862 29.346 18.4917 29.6713 18.27C29.5633 18.1358 29.4394 17.99 29.3285 17.8719C28.8254 17.3513 28.3019 17.0494 27.5858 16.87C27.106 16.749 25.8358 16.714 25.3531 16.8029C23.8277 17.0931 22.7835 18.0483 22.4919 19.4221C22.416 19.7838 22.4452 20.8615 22.5415 21.2217C22.6946 21.7365 22.9585 22.2104 23.3056 22.6027C23.905 23.2473 24.5846 23.6615 26.2033 24.3585C27.8979 25.095 28.4579 25.4377 28.8181 25.954C29.1083 26.3754 29.2002 26.6831 29.2002 27.2227C29.2017 27.8644 28.9479 28.4113 28.5046 28.786C27.5669 29.629 25.7688 29.7456 24.43 29.0383C24.026 28.8254 23.4617 28.3179 23.084 27.8425L22.6975 28.0656C22.3606 28.2625 22.015 28.4623 21.7656 28.6067ZM15.5298 32.0717H12.441C12.0385 32.0717 11.7119 31.745 11.7119 31.3425V19.6671H8.07771C7.67521 19.6671 7.34854 19.3404 7.34854 18.9379V17.5904C7.34854 16.1088 7.34854 15.8725 7.62563 15.6596C7.64313 15.6435 7.66063 15.6304 7.68396 15.6173C7.69271 15.6115 7.70146 15.6056 7.71021 15.5998L7.71167 15.6027C8.04417 15.4408 9.05333 15.4467 14.0087 15.451L19.8727 15.4671C20.2708 15.4685 20.596 15.7894 20.6004 16.1875L20.6267 18.9335C20.6281 19.1275 20.5523 19.3156 20.4152 19.4527C20.2781 19.5898 20.0915 19.6671 19.8975 19.6671H16.259V31.3425C16.259 31.7465 15.9323 32.0717 15.5298 32.0717ZM13.1702 30.6133H14.8006V18.9379C14.8006 18.5354 15.1273 18.2087 15.5298 18.2087H19.161L19.1494 16.9225L14.0058 16.9079C11.6025 16.9006 9.73583 16.9094 8.81125 16.9181C8.80979 17.1165 8.80833 17.3454 8.80833 17.5904V18.2087H12.4425C12.845 18.2087 13.1717 18.5354 13.1717 18.9379V30.6133H13.1702Z" fill="#6E83F2"/>
</svg>
