<svg width="150" height="50" viewBox="0 0 150 50" fill="none" xmlns="http://www.w3.org/2000/svg">
<g clip-path="url(#clip0_105_1487)">
<path d="M120.565 30.7075C122.079 30.7075 123.106 29.9991 123.825 29.0251L122.926 28.5444C122.438 29.2528 121.54 29.7714 120.565 29.7714C118.691 29.7714 117.266 28.342 117.266 26.3434C117.266 24.3194 118.691 22.9153 120.565 22.9153C121.54 22.9153 122.438 23.4213 122.926 24.1423L123.812 23.649C123.132 22.6876 122.079 21.9792 120.565 21.9792C118.101 21.9792 116.163 23.7502 116.163 26.3434C116.163 28.9365 118.101 30.7075 120.565 30.7075ZM125.48 30.5557L126.237 28.6709H130.498L131.256 30.5557H132.475L129.035 22.1184H127.713L124.261 30.5557H125.48ZM130.19 27.7475H126.558L128.368 23.1936L130.19 27.7475ZM137.172 30.7075C138.687 30.7075 139.713 29.9991 140.432 29.0251L139.534 28.5444C139.046 29.2528 138.148 29.7714 137.172 29.7714C135.298 29.7714 133.874 28.342 133.874 26.3434C133.874 24.3194 135.298 22.9153 137.172 22.9153C138.148 22.9153 139.046 23.4213 139.534 24.1423L140.419 23.649C139.739 22.6876 138.687 21.9792 137.172 21.9792C134.708 21.9792 132.77 23.7502 132.77 26.3434C132.77 28.9365 134.708 30.7075 137.172 30.7075ZM144.719 30.5557C147.388 30.5557 149.108 28.7468 149.108 26.3434C149.108 23.9526 147.388 22.1184 144.719 22.1184H141.792V30.5557H144.719ZM144.719 29.6196H142.858V23.0545H144.719C146.836 23.0545 148.004 24.5218 148.004 26.3434C148.004 28.1522 146.798 29.6196 144.719 29.6196Z" fill="white"/>
<path d="M109.893 18.6965H109.091V33.7179H109.893V18.6965Z" fill="white"/>
<path fill-rule="evenodd" clip-rule="evenodd" d="M40.9344 30.1907C38.0818 30.1907 36.0001 28.2064 36.0001 25.3906C36.0001 22.5938 38.0818 20.6095 40.9344 20.6095C42.8427 20.6095 43.9992 21.4221 44.616 22.2536L43.0161 23.7276C42.5728 23.0851 41.8982 22.7449 41.0501 22.7449C39.5659 22.7449 38.5251 23.8032 38.5251 25.3906C38.5251 26.9781 39.5659 28.0552 41.0501 28.0552C41.8982 28.0552 42.5728 27.6773 43.0161 27.0537L44.616 28.5277C43.9992 29.3592 42.8427 30.1907 40.9344 30.1907ZM48.7651 29.9639H46.3172V17.3591H48.7651V29.9639ZM52.1545 19.8536C51.3642 19.8536 50.7089 19.211 50.7089 18.4173C50.7089 17.6236 51.3642 17 52.1545 17C52.964 17 53.6194 17.6236 53.6194 18.4173C53.6194 19.211 52.964 19.8536 52.1545 19.8536ZM53.3881 29.9639H50.9402V20.8363H53.3881V29.9639ZM60.883 30.1907C59.7843 30.1907 58.782 29.7372 58.011 28.7923V33.4411H55.5631V20.8363H58.011V21.989C58.7242 21.1008 59.7458 20.6095 60.883 20.6095C63.2731 20.6095 65.0078 22.3481 65.0078 25.3906C65.0078 28.4332 63.2731 30.1907 60.883 30.1907ZM60.112 28.0552C61.5191 28.0552 62.4828 26.9781 62.4828 25.3906C62.4828 23.8221 61.5191 22.7449 60.112 22.7449C59.3217 22.7449 58.4351 23.1796 58.011 23.7843V26.997C58.4158 27.5828 59.3217 28.0552 60.112 28.0552ZM71.5623 30.1907C70.4636 30.1907 69.4613 29.7372 68.6903 28.7923V33.4411H66.2424V20.8363H68.6903V21.989C69.4035 21.1008 70.4251 20.6095 71.5623 20.6095C73.9524 20.6095 75.6871 22.3481 75.6871 25.3906C75.6871 28.4332 73.9524 30.1907 71.5623 30.1907ZM70.7913 28.0552C72.1984 28.0552 73.1621 26.9781 73.1621 25.3906C73.1621 23.8221 72.1984 22.7449 70.7913 22.7449C70.001 22.7449 69.1144 23.1796 68.6903 23.7843V26.997C69.0951 27.5828 70.001 28.0552 70.7913 28.0552ZM78.3897 19.8536C77.5994 19.8536 76.9441 19.211 76.9441 18.4173C76.9441 17.6236 77.5994 17 78.3897 17C79.1992 17 79.8546 17.6236 79.8546 18.4173C79.8546 19.211 79.1992 19.8536 78.3897 19.8536ZM79.6233 29.9639H77.1754V20.8363H79.6233V29.9639ZM90.4477 29.9639H87.9805V24.4458C87.9805 23.1796 87.3059 22.7449 86.265 22.7449C85.3013 22.7449 84.5688 23.2741 84.1448 23.8032V29.9639H81.6969V20.8363H84.1448V22.0079C84.7423 21.3276 85.8988 20.6095 87.4022 20.6095C89.4647 20.6095 90.4477 21.7434 90.4477 23.5198V29.9639ZM96.1662 33.6679C94.5857 33.6679 93.3328 33.3088 92.1571 32.3073L93.2557 30.5876C94.0074 31.3813 95.0097 31.7025 96.1662 31.7025C97.342 31.7025 98.7491 31.2112 98.7491 29.3592V28.471C98.0166 29.3781 97.0143 29.8883 95.8578 29.8883C93.5448 29.8883 91.7523 28.3009 91.7523 25.2584C91.7523 22.2725 93.5063 20.6095 95.8578 20.6095C96.9758 20.6095 97.9974 21.063 98.7491 22.0079V20.8363H101.197V29.3592C101.197 32.8175 98.46 33.6679 96.1662 33.6679ZM96.6481 27.7718C97.4384 27.7718 98.325 27.3182 98.7491 26.7324V23.7654C98.325 23.1796 97.4384 22.7449 96.6481 22.7449C95.241 22.7449 94.2773 23.6898 94.2773 25.2584C94.2773 26.8269 95.241 27.7718 96.6481 27.7718Z" fill="white"/>
<path fill-rule="evenodd" clip-rule="evenodd" d="M8.34479 25.4167H22.0892V24.4221H8.34479V25.4167Z" fill="white"/>
<path fill-rule="evenodd" clip-rule="evenodd" d="M8.34479 22.9302H22.0892V21.9355H8.34479V22.9302Z" fill="white"/>
<path fill-rule="evenodd" clip-rule="evenodd" d="M17.1805 15.4705H22.0892V14.4758H17.1805V15.4705Z" fill="white"/>
<path fill-rule="evenodd" clip-rule="evenodd" d="M17.1805 17.957H22.0892V16.9624H17.1805V17.957Z" fill="white"/>
<path fill-rule="evenodd" clip-rule="evenodd" d="M17.1805 20.4436H22.0892V19.449H17.1805V20.4436Z" fill="white"/>
<path fill-rule="evenodd" clip-rule="evenodd" d="M8.34479 27.9033H15.217V26.9087H8.34479V27.9033Z" fill="white"/>
<path fill-rule="evenodd" clip-rule="evenodd" d="M15.217 14.4758V20.4436H8.34479V14.4758H15.217ZM14.2353 15.4705H9.32653V19.4489H14.2353V15.4705Z" fill="white"/>
<path fill-rule="evenodd" clip-rule="evenodd" d="M25.5253 25.4167V16.7311C27.8331 19.3196 28.9602 22.624 28.9448 25.8715C28.9304 28.9018 28.3485 30.1786 27.4888 32.1563V26.9086L25.5253 25.4167ZM26.5071 33.8444C25.4301 35.4559 23.8734 36.903 22.0892 37.9751L16.1988 34.3683L26.5071 27.9032V33.8444ZM15.217 34.8656L21.2098 38.4132C19.4865 39.3601 17.3166 39.8387 15.217 39.8387C13.1175 39.8387 10.8635 39.339 9.24008 38.4132L15.217 34.8656ZM3.92695 27.9032L14.2353 34.3683L8.19788 37.863C6.37988 36.7947 5.09123 35.516 3.92695 33.7626V27.9032ZM4.90762 25.4167L2.94521 26.8355V26.8463V32.176C2.05831 30.3052 1.48923 28.2632 1.48923 25.8455C1.48923 21.9355 2.93483 19.0968 4.90762 16.6902V25.4167ZM5.90434 12.4396C5.90434 11.6578 6.52745 11.0221 7.29352 11.0221C8.05934 11.0221 8.68244 11.6578 8.68244 12.4396V12.966L24.5436 12.9839V27.9032L15.217 33.3737L5.88993 27.9032L5.90434 12.4396ZM25.7816 12.9933H27.6923V12.4675C27.6923 11.1067 26.6029 10 25.2641 10H7.11187C5.7728 10 4.68374 11.1067 4.68374 12.4675V15.4226C2.09128 18.1214 0.490845 21.8085 0.490845 25.8686C0.490845 34.1204 7.097 40.8333 15.2171 40.8333C23.337 40.8333 29.9432 34.1204 29.9432 25.8686C29.9432 21.8244 28.3556 18.1506 25.7816 15.4549V12.9933Z" fill="white"/>
</g>
<defs>
<clipPath id="clip0_105_1487">
<rect width="150" height="30.8333" fill="white" transform="translate(0 10)"/>
</clipPath>
</defs>
</svg>
